<?xml version="1.0" encoding="utf-8"?>
<svg xmlns="http://www.w3.org/2000/svg" viewBox="118.2504 97.1579 247.108 265.6151" width="247.108px" height="265.615px">
  <path d="M 277.219 264.078 C 278.2 265.262 279.622 266.931 280.79 268.359 C 281.958 269.788 283.079 271.166 283.874 272.147 C 286.926 275.947 289.036 278.446 290.604 280.061 C 292.173 281.676 293.2 282.408 294.088 282.673 C 295.458 283.078 298.775 283.125 303.898 282.817 C 309.021 282.509 315.95 281.848 324.546 280.836 C 327.162 280.524 332.231 279.824 337.167 279.104 C 342.103 278.384 346.907 277.644 348.993 277.254 C 350.021 277.083 348.394 277.908 345.342 279.212 C 342.29 280.516 337.813 282.299 333.142 284.043 C 324.998 287.079 316.286 289.618 308.671 291.288 C 301.056 292.958 294.54 293.76 290.787 293.324 C 288.919 293.106 287.875 292.911 287.093 292.285 C 286.311 291.658 285.789 290.6 284.964 288.653 C 283.5 285.258 281.561 281.357 279.599 277.784 C 277.637 274.21 275.652 270.964 274.095 268.877 C 273.69 268.347 264.454 255.065 264.531 255.065 C 264.546 255.065 264.866 249.96 265.528 250.735 C 266.19 251.51 276.238 262.91 277.219 264.078 Z M 239.668 257.178 C 239.621 257.303 238.169 258.554 236.319 260.116 C 234.469 261.678 232.223 263.552 230.588 264.922 C 228.642 266.542 224.36 269.819 220.338 272.817 C 216.317 275.814 212.556 278.531 211.653 279.029 C 211.015 279.387 205.938 279.535 200.313 279.5 C 194.688 279.465 188.514 279.247 185.68 278.874 C 184.481 278.718 183.329 278.554 182.433 278.414 C 181.538 278.274 180.899 278.157 180.728 278.095 C 180.51 278.017 180.829 277.799 181.799 277.398 C 182.768 276.997 184.388 276.413 186.77 275.604 C 192.874 273.517 201.431 270.419 209.259 267.499 C 217.087 264.579 224.188 261.838 227.38 260.468 C 227.645 260.359 230.066 259.324 232.476 258.284 C 234.886 257.245 237.284 256.201 237.502 256.077 C 237.845 255.906 239.11 255.368 240.362 254.857 C 241.614 254.346 242.853 253.861 243.143 253.796 C 243.298 253.983 242.445 254.805 241.545 255.592 C 240.645 256.379 239.699 257.131 239.668 257.178 Z M 256.271 258.697 C 256.271 258.557 261.269 260.122 261.285 260.153 C 261.316 260.185 268.598 271.29 269.205 272.209 C 270.809 274.607 272.094 276.647 273.324 278.784 C 274.554 280.921 275.73 283.156 277.116 285.943 C 279.327 290.366 280.619 293.324 281.219 295.711 C 281.818 298.097 281.725 299.911 281.164 302.044 C 279.981 306.513 277.847 311.831 275.072 317.37 C 272.296 322.91 268.879 328.671 265.126 334.028 C 262.728 337.438 259.17 341.922 256.211 345.403 C 253.252 348.883 250.893 351.359 250.893 350.752 C 250.893 350.674 250.924 350.565 250.975 350.452 C 251.026 350.339 251.096 350.222 251.174 350.129 C 251.454 349.848 254.965 341.985 258.835 333.124 C 262.705 324.264 266.932 314.407 268.645 310.141 C 270.841 304.644 272.047 301.577 272.662 299.693 C 273.277 297.809 273.3 297.108 273.129 296.345 C 273.02 295.8 272.086 293.495 270.486 289.797 C 268.886 286.099 266.621 281.007 263.849 274.887 C 262.852 272.676 260.958 268.652 259.313 265.169 C 257.668 261.686 256.271 258.744 256.271 258.697 Z M 242.64 262.399 C 242.983 262.087 244.638 260.458 246.208 258.906 C 247.778 257.354 249.261 255.88 249.261 255.88 C 249.261 255.88 251.187 260.422 253.191 265.135 C 255.195 269.848 257.277 274.732 257.589 275.417 C 258.757 277.955 260.999 282.946 262.996 287.442 C 264.993 291.938 266.745 295.94 266.932 296.501 C 267.134 297.046 267.22 297.373 267.033 298.12 C 266.846 298.867 266.386 300.035 265.499 302.262 C 264.985 303.524 264.487 304.746 264.098 305.696 C 263.709 306.646 263.428 307.323 263.35 307.494 C 263.273 307.665 262.977 308.366 262.56 309.355 C 262.143 310.344 261.606 311.62 261.046 312.944 C 260.501 314.268 259.878 315.747 259.313 317.062 C 258.749 318.378 258.243 319.53 257.932 320.199 C 257.62 320.853 257.34 321.468 257.137 321.928 C 256.934 322.387 256.81 322.691 256.81 322.722 C 256.81 322.816 255.409 326.039 253.824 329.636 C 252.24 333.233 250.473 337.204 249.741 338.792 C 249.445 339.431 249.141 340.1 248.892 340.66 C 248.643 341.22 248.448 341.672 248.371 341.874 C 248.044 342.684 246.541 346.078 245.097 349.301 C 243.653 352.524 242.267 355.576 242.173 355.701 C 241.893 356.028 239.23 352.906 235.98 348.663 C 232.729 344.42 228.891 339.056 226.259 334.898 C 223.285 330.242 220.147 324.777 217.395 319.549 C 214.643 314.321 212.276 309.33 210.844 305.624 C 210.299 304.191 209.995 303.35 209.828 302.509 C 209.661 301.668 209.629 300.827 209.629 299.395 C 209.629 297.947 209.652 297.098 209.835 296.16 C 210.018 295.222 210.36 294.194 210.999 292.388 C 212.136 289.149 212.876 287.187 213.479 285.945 C 214.082 284.703 214.549 284.181 215.141 283.823 C 215.686 283.496 217.469 282.289 219.151 281.125 C 220.833 279.961 222.413 278.84 222.553 278.685 C 222.6 278.638 222.989 278.334 223.581 277.883 C 224.173 277.431 224.967 276.832 225.823 276.193 C 228.579 274.122 231.445 271.864 234.29 269.529 C 237.136 267.193 239.962 264.78 242.64 262.397 L 242.64 262.399 Z M 234.699 97.839 C 233.749 98.307 232.114 99.708 230.37 101.46 C 228.626 103.212 226.773 105.314 225.387 107.182 C 222.553 111.029 219.454 115.871 216.644 120.753 C 213.833 125.635 211.311 130.556 209.629 134.558 C 209.396 135.149 209.17 135.679 208.995 136.06 C 208.82 136.441 208.695 136.675 208.664 136.675 C 208.648 136.675 208.212 136.473 207.527 136.142 C 206.842 135.811 205.908 135.352 204.895 134.838 C 199.43 132.129 191.799 128.89 185.021 126.281 C 178.243 123.673 172.318 121.695 170.263 121.508 C 168.519 121.352 167.273 121.641 166.378 122.52 C 165.483 123.4 164.938 124.871 164.595 127.083 C 164.377 128.5 164.33 131.887 164.424 135.69 C 164.517 139.493 164.751 143.713 165.093 146.797 C 165.545 150.97 166.3 156.607 167.032 161.516 C 167.764 166.425 168.472 170.606 168.831 171.867 C 168.893 172.07 168.574 172.186 166.986 172.252 C 165.398 172.318 162.541 172.334 157.527 172.334 C 151.361 172.35 146.899 172.451 142.854 172.731 C 138.809 173.011 135.181 173.47 130.681 174.202 C 128.112 174.623 126.36 174.973 125.033 175.362 C 123.705 175.751 122.802 176.18 121.93 176.756 C 120.654 177.597 119.836 178.936 119.517 180.575 C 119.198 182.214 119.377 184.153 120.093 186.193 C 122.149 192.11 125.769 199.693 130.012 207.249 C 134.255 214.805 139.121 222.334 143.668 228.142 C 145.443 230.416 146.969 232.23 148.476 233.829 C 149.983 235.429 151.47 236.815 153.167 238.232 L 154.708 239.509 L 156.25 240.786 L 154.397 242.67 L 152.544 244.554 C 148.246 248.93 144.828 252.682 141.554 256.719 C 138.28 260.756 135.15 265.077 131.429 270.59 C 128.798 274.514 126.252 278.718 124.087 282.673 C 121.922 286.628 120.139 290.334 119.034 293.262 C 118.722 294.072 118.481 295.434 118.353 296.796 C 118.225 298.159 118.209 299.521 118.349 300.331 C 118.769 302.511 121.276 304.442 125.835 306.104 C 130.393 307.766 137.004 309.16 145.63 310.266 C 150.41 310.873 154.225 311.262 158.286 311.5 C 162.346 311.738 166.652 311.823 172.413 311.823 C 179.359 311.838 184.949 311.636 189.663 311.177 C 194.377 310.718 198.216 310.001 201.657 308.989 C 202.389 308.771 203.113 308.561 203.686 308.397 C 204.258 308.234 204.679 308.117 204.803 308.086 C 204.958 308.039 205.13 308.14 205.328 308.409 C 205.527 308.678 205.752 309.114 206.017 309.736 C 206.64 311.2 208.306 314.634 210.117 318.234 C 211.927 321.835 213.881 325.603 215.081 327.737 C 218.32 333.529 222.407 339.929 226.425 345.644 C 230.442 351.359 234.39 356.388 237.348 359.44 C 238.283 360.405 239.372 361.239 240.423 361.831 C 241.474 362.423 242.486 362.773 243.265 362.773 C 246.223 362.773 250.552 359.962 255.567 355.014 C 260.581 350.066 266.28 342.981 271.979 334.433 C 275.857 328.625 279.43 322.209 282.148 316.378 C 284.865 310.546 286.726 305.299 287.177 301.827 C 287.379 300.317 287.348 299.632 287.893 299.336 C 288.438 299.04 289.559 299.134 292.066 299.18 C 297.967 299.32 305.94 298.152 314.789 295.972 C 323.638 293.792 333.362 290.6 342.767 286.692 C 347.314 284.808 350.88 283.188 353.85 281.639 C 356.82 280.09 359.195 278.61 361.359 277.006 C 362.978 275.823 364.1 274.585 364.734 273.276 C 365.369 271.968 365.517 270.59 365.19 269.127 C 364.723 267.056 362.87 263.397 360.145 258.994 C 357.42 254.591 353.823 249.445 349.867 244.4 C 346.924 240.616 342.774 235.703 338.932 231.37 C 335.09 227.037 331.555 223.284 329.843 221.821 C 329.376 221.432 328.947 221.042 328.636 220.735 C 328.325 220.427 328.13 220.202 328.13 220.139 C 328.13 220.077 328.379 219.742 328.78 219.256 C 329.181 218.769 329.734 218.131 330.341 217.461 C 334.265 213.116 338.571 207.067 342.86 199.974 C 347.15 192.881 351.424 184.745 355.286 176.228 C 358.089 170.046 360.425 163.856 362.068 158.395 C 363.711 152.933 364.66 148.199 364.691 144.929 C 364.707 143.403 364.629 142.399 364.349 141.589 C 364.069 140.779 363.586 140.164 362.792 139.417 C 361.717 138.389 360.386 137.712 358.288 137.272 C 356.19 136.832 353.324 136.63 349.182 136.552 C 339.278 136.365 327.46 137.595 316.198 139.767 C 304.936 141.939 294.231 145.053 286.554 148.635 C 284.498 149.6 283.058 150.496 281.758 151.804 C 280.458 153.112 279.298 154.833 277.803 157.449 L 277.133 158.616 L 276.464 159.783 L 276.495 158.024 L 276.526 156.264 C 276.541 154.738 276.518 153.741 276.397 152.792 C 276.276 151.842 276.058 150.939 275.685 149.6 C 274.689 146.159 273.24 142.546 271.231 138.544 C 269.222 134.542 266.653 130.151 263.415 125.152 C 259.694 119.422 254.866 113.1 250.452 107.953 C 246.037 102.807 242.035 98.836 239.964 97.808 C 239.061 97.372 238.189 97.154 237.321 97.158 C 236.453 97.162 235.589 97.388 234.701 97.839 M 239.651 110.141 C 242.142 115.124 244.564 120.294 246.806 125.397 C 249.048 130.501 251.111 135.538 252.886 140.257 C 253.82 142.733 254.88 145.831 255.705 148.424 C 256.53 151.017 257.122 153.103 257.122 153.555 C 257.122 153.726 256.85 154.38 256.406 155.303 C 255.962 156.226 255.347 157.417 254.662 158.662 C 253.992 159.892 253.19 161.387 252.443 162.796 C 251.696 164.205 251.003 165.529 250.551 166.417 C 250.084 167.32 249.648 168.137 249.317 168.729 C 248.986 169.321 248.76 169.687 248.713 169.687 C 248.666 169.687 248.207 169.08 247.503 168.107 C 246.798 167.134 245.848 165.794 244.82 164.33 C 241.94 160.219 240.266 157.891 238.903 156.283 C 237.541 154.675 236.49 153.788 234.855 152.558 C 232.815 151.048 229.833 149.016 226.762 147.019 C 223.69 145.022 220.529 143.06 218.131 141.689 C 217.025 141.066 216.029 140.483 215.309 140.047 C 214.589 139.611 214.145 139.323 214.145 139.291 C 214.145 139.12 215.04 137.15 216.142 134.834 C 217.244 132.518 218.552 129.855 219.377 128.298 C 221.121 124.981 222.88 121.898 224.698 118.982 C 226.516 116.066 228.392 113.318 230.37 110.67 C 231.553 109.097 232.924 107.424 234.053 106.143 C 235.182 104.862 236.069 103.975 236.287 103.975 C 236.365 103.975 236.778 104.668 237.385 105.785 C 237.992 106.902 238.794 108.444 239.651 110.141 M 253.073 120.605 C 257.137 126.274 260.719 131.825 263.576 136.846 C 266.433 141.868 268.567 146.36 269.735 149.911 C 270.451 152.106 270.778 154.045 270.692 156.373 C 270.606 158.701 270.108 161.418 269.174 165.171 L 268.832 166.557 L 268.489 167.943 L 267.789 168.083 L 267.089 168.223 C 265.61 168.487 263.717 168.939 262.04 169.402 C 260.362 169.865 258.898 170.34 258.275 170.652 C 257.917 170.839 257.372 171.221 256.784 171.684 C 256.196 172.147 255.565 172.692 255.036 173.206 C 254.491 173.736 254.001 174.187 253.646 174.491 C 253.292 174.795 253.074 174.95 253.074 174.888 C 253.074 174.685 253.502 173.735 254.413 171.929 C 255.324 170.123 256.718 167.46 258.649 163.832 C 261.109 159.191 262.331 156.887 262.818 155.279 C 263.305 153.671 263.056 152.761 262.573 150.908 C 262.028 148.806 261.273 146.337 260.323 143.558 C 259.373 140.779 258.229 137.688 256.905 134.34 C 255.597 131.07 253.721 126.593 252.121 122.875 C 250.521 119.157 249.197 116.198 248.995 115.965 C 248.917 115.887 248.847 115.77 248.796 115.642 C 248.745 115.513 248.714 115.373 248.714 115.248 C 248.714 114.968 248.932 115.101 249.586 115.906 C 250.24 116.712 251.33 118.191 253.074 120.605 M 173.346 128.391 C 181.724 131.022 191.651 135.134 201.411 139.883 C 211.171 144.632 220.763 150.02 228.47 155.205 C 229.545 155.921 230.642 156.7 231.554 157.378 C 232.465 158.055 233.189 158.631 233.516 158.942 L 234.077 159.487 L 234.637 160.032 L 234.731 161.792 L 234.825 163.552 C 235.37 173.985 235.736 181.023 235.985 185.936 C 236.234 190.849 236.366 193.636 236.444 195.567 L 236.553 197.824 L 236.662 200.081 L 235.899 200.533 L 235.136 200.985 C 232.364 202.574 229.546 204.528 227.035 206.56 C 224.524 208.592 222.321 210.702 220.779 212.602 L 220.499 212.945 L 220.219 213.288 L 218.039 212.525 L 215.859 211.762 C 214.66 211.341 213.375 210.89 212.273 210.501 C 211.171 210.112 210.253 209.785 209.786 209.613 C 209.318 209.441 207.754 208.881 205.609 208.114 C 203.464 207.347 200.739 206.374 197.951 205.378 C 191.38 203.011 187.378 201.563 184.988 200.675 C 182.598 199.787 181.819 199.46 181.695 199.336 C 181.586 199.227 181.407 198.729 180.982 197.195 C 180.558 195.661 179.888 193.092 178.798 188.841 C 176.228 178.922 174.087 168.349 172.588 158.504 C 171.089 148.659 170.233 139.542 170.233 132.534 C 170.233 130.681 170.256 129.459 170.318 128.7 C 170.38 127.941 170.481 127.645 170.638 127.645 C 170.732 127.645 171.09 127.73 171.584 127.867 C 172.078 128.003 172.709 128.19 173.347 128.392 M 353.198 142.624 C 354.148 142.717 355.012 142.818 355.646 142.9 C 356.281 142.982 356.686 143.044 356.717 143.06 C 356.748 143.091 356.289 143.807 355.529 144.94 C 354.77 146.073 353.711 147.622 352.544 149.319 C 351.361 151.032 349.764 153.36 348.141 155.735 C 346.518 158.11 344.867 160.531 343.575 162.43 C 339.199 168.892 335.952 173.665 333.192 177.698 C 330.432 181.731 328.159 185.024 325.73 188.528 C 324.951 189.634 324.009 190.988 323.118 192.273 C 322.226 193.558 321.385 194.773 320.809 195.598 L 319.75 197.092 L 318.691 198.586 L 316.807 198.929 L 314.923 199.272 C 313.895 199.458 312.907 199.637 312.151 199.778 C 311.396 199.918 310.874 200.019 310.781 200.05 C 310.517 200.144 310.392 200.066 310.423 199.377 C 310.454 198.688 310.641 197.388 310.999 195.036 C 311.684 190.567 312.174 186.892 312.498 183.7 C 312.821 180.508 312.977 177.798 312.992 175.26 C 313.008 172.768 313.008 171.476 312.91 170.667 C 312.813 169.857 312.618 169.53 312.245 168.969 C 311.84 168.378 311.342 167.918 310.649 167.533 C 309.956 167.148 309.069 166.836 307.885 166.54 C 306.857 166.291 302.349 166.112 297.456 166.046 C 292.563 165.98 287.284 166.027 284.714 166.229 C 283.515 166.323 282.417 166.393 281.608 166.431 C 280.798 166.47 280.277 166.478 280.23 166.447 C 280.121 166.323 281.234 164.065 282.488 161.705 C 283.741 159.346 285.135 156.886 285.586 156.357 C 286.396 155.422 288.093 154.41 290.783 153.273 C 293.473 152.136 297.155 150.875 301.935 149.442 C 303.368 149.006 304.77 148.585 305.875 148.255 C 306.981 147.924 307.79 147.683 308.039 147.605 C 309.051 147.278 311.924 146.648 315.152 146.005 C 318.379 145.363 321.961 144.709 324.39 144.335 C 330.681 143.385 336.084 142.778 340.814 142.498 C 345.544 142.218 349.6 142.264 353.197 142.623 M 356.468 156.358 C 353.696 165.28 349.468 175.246 344.606 184.666 C 339.744 194.087 334.247 202.963 328.937 209.705 C 327.894 211.029 327.232 211.854 326.512 212.707 C 325.792 213.56 325.013 214.439 323.737 215.872 L 323.207 216.463 L 322.678 217.054 L 321.899 216.727 L 321.12 216.4 C 320.077 215.948 318.403 215.512 316.46 215.154 C 314.517 214.796 312.306 214.516 310.188 214.376 L 308.475 214.267 L 306.763 214.158 L 307.199 212.648 L 307.635 211.137 C 307.868 210.311 308.086 209.51 308.246 208.879 C 308.406 208.248 308.507 207.789 308.507 207.649 C 308.507 207.026 308.686 206.652 309.632 206.29 C 310.578 205.928 312.291 205.578 315.358 205.002 C 318.534 204.41 320.286 204.068 321.341 203.745 C 322.396 203.422 322.754 203.119 323.144 202.604 C 323.58 202.012 325.363 199.443 327.586 196.216 C 329.809 192.989 332.472 189.104 334.667 185.88 C 335.866 184.12 337.228 182.135 338.455 180.356 C 339.681 178.577 340.771 177.004 341.425 176.07 C 342.079 175.12 343.325 173.298 344.808 171.126 C 346.291 168.954 348.012 166.431 349.615 164.08 C 353.072 158.973 354.972 156.178 356.023 154.675 C 357.074 153.172 357.277 152.962 357.339 153.024 C 357.37 153.055 357.292 153.445 357.136 154.048 C 356.98 154.651 356.747 155.469 356.467 156.357 M 248.34 181.615 C 248.06 181.988 247.522 182.806 246.884 183.822 C 246.245 184.838 245.506 186.053 244.82 187.22 C 244.135 188.388 243.497 189.447 243.018 190.218 C 242.539 190.989 242.22 191.472 242.173 191.487 C 242.127 191.487 242.08 191.059 242.037 190.366 C 241.994 189.673 241.955 188.715 241.924 187.656 C 241.908 186.613 241.854 185.258 241.784 183.919 C 241.714 182.58 241.628 181.256 241.55 180.275 C 241.473 179.294 241.379 177.963 241.29 176.608 C 241.2 175.253 241.115 173.875 241.052 172.801 L 240.959 170.854 L 240.865 168.908 L 242.983 171.742 L 245.101 174.576 L 247.234 177.41 L 249.367 180.244 L 248.854 180.93 L 248.34 181.615 Z M 304.802 172.116 C 305.02 172.209 305.066 172.412 304.829 172.965 C 304.591 173.518 304.07 174.421 303.151 175.915 C 302.543 176.896 301.555 178.523 300.449 180.357 C 299.343 182.191 298.121 184.231 297.047 186.037 C 294.929 189.587 292.446 193.698 290.211 197.365 C 287.976 201.032 285.991 204.256 284.87 206.031 C 284.481 206.654 283.842 207.658 283.13 208.779 C 282.417 209.9 281.631 211.138 280.946 212.228 C 280.261 213.303 279.015 215.226 277.559 217.456 C 276.103 219.686 274.437 222.224 272.911 224.529 C 270.435 228.267 269.026 230.361 268.162 231.498 C 267.298 232.635 266.979 232.814 266.683 232.72 C 264.487 232.066 260.633 230.275 257.091 228.395 C 253.548 226.515 250.317 224.545 249.367 223.533 C 248.277 222.38 247.063 219.577 246.027 216.152 C 244.992 212.726 244.135 208.678 243.762 205.034 L 243.637 203.789 L 243.512 202.544 L 244.182 201.143 L 244.852 199.742 C 247.312 194.572 250.714 188.81 253.867 184.201 C 257.02 179.592 259.924 176.135 261.388 175.575 C 262.665 175.076 265.453 174.485 268.913 173.932 C 272.374 173.379 276.508 172.865 280.479 172.523 C 281.554 172.43 282.651 172.328 283.554 172.243 C 284.457 172.157 285.166 172.087 285.462 172.056 C 286.537 171.962 291.247 171.931 295.751 171.947 C 300.255 171.963 304.553 172.025 304.802 172.118 M 165.965 178.376 C 167.055 178.438 168.06 178.516 168.803 178.586 C 169.547 178.656 170.029 178.718 170.076 178.749 C 170.108 178.781 170.419 179.917 170.89 181.72 C 171.361 183.522 171.992 185.99 172.661 188.684 C 174.094 194.321 174.942 197.568 175.644 199.806 C 176.345 202.044 176.898 203.274 177.739 204.878 C 178.44 206.202 179.989 208.576 181.779 211.134 C 183.57 213.692 185.602 216.432 187.268 218.488 C 187.891 219.236 188.413 219.928 188.752 220.438 C 189.091 220.948 189.246 221.275 189.137 221.291 C 189.043 221.322 187.533 221.431 185.178 221.587 C 182.823 221.743 179.623 221.945 176.15 222.163 L 169.858 222.567 L 163.567 222.972 L 162.882 222.224 L 162.197 221.476 C 161.823 221.071 161.123 220.309 160.297 219.413 C 159.472 218.518 158.522 217.49 157.65 216.556 C 153.773 212.367 146.174 203.694 139.545 195.986 C 132.916 188.278 127.255 181.536 127.255 181.209 C 127.255 180.975 128.999 180.57 131.506 180.154 C 134.013 179.737 137.283 179.309 140.335 179.029 C 145.317 178.578 149.88 178.297 154.119 178.188 C 158.358 178.079 162.274 178.141 165.965 178.375 M 306.172 187.656 C 305.518 192.764 304.482 198.548 303.369 203.617 C 302.256 208.686 301.064 213.038 300.099 215.28 C 299.741 216.152 298.931 217.265 297.662 218.639 C 296.393 220.013 294.664 221.648 292.469 223.564 C 289.136 226.461 284.597 230.019 280.786 232.814 C 276.975 235.609 270.57 239.173 270.539 238.745 C 270.508 238.317 272.848 235.57 273.284 234.932 C 273.875 234.06 276.414 230.152 279.061 226.056 C 281.708 221.961 284.465 217.679 285.492 216.06 C 285.959 215.312 286.59 214.308 287.232 213.292 C 287.874 212.276 288.528 211.248 289.042 210.454 C 289.556 209.644 290.195 208.632 290.81 207.651 C 291.425 206.67 292.017 205.72 292.437 205.035 C 294.009 202.465 296.586 198.23 299.012 194.232 C 301.437 190.234 303.711 186.474 304.676 184.854 C 305.236 183.92 305.75 183.087 306.132 182.495 C 306.514 181.903 306.763 181.553 306.794 181.584 C 306.825 181.615 306.77 182.316 306.658 183.418 C 306.545 184.52 306.374 186.022 306.171 187.657 M 135.29 200.113 C 136.754 201.81 138.163 203.438 139.256 204.695 C 140.35 205.952 141.128 206.84 141.331 207.058 C 141.534 207.276 141.977 207.774 142.53 208.397 C 143.083 209.02 143.745 209.767 144.383 210.484 C 145.021 211.216 145.621 211.893 146.073 212.399 C 146.525 212.905 146.828 213.24 146.875 213.287 C 146.921 213.334 147.451 213.918 148.268 214.821 C 149.085 215.724 150.191 216.947 151.39 218.27 C 152.589 219.593 153.983 221.112 155.264 222.494 C 156.545 223.876 157.713 225.122 158.46 225.9 L 159.815 227.301 L 161.17 228.702 L 163.63 228.67 L 166.09 228.639 C 167.445 228.624 169.446 228.554 171.575 228.456 C 173.705 228.359 175.963 228.234 177.832 228.11 C 179.716 227.97 181.445 227.861 182.71 227.799 C 183.975 227.737 184.777 227.721 184.808 227.767 C 184.855 227.814 184.839 227.915 184.777 228.044 C 184.715 228.173 184.606 228.328 184.465 228.484 C 184.325 228.624 184.091 229.005 183.823 229.5 C 183.555 229.994 183.251 230.602 182.971 231.193 C 182.69 231.8 182.402 232.369 182.161 232.801 C 181.919 233.233 181.725 233.529 181.631 233.591 C 181.538 233.654 181.297 233.716 180.981 233.762 C 180.666 233.809 180.276 233.84 179.887 233.84 C 178.439 233.84 176.111 234.082 173.588 234.463 C 171.065 234.845 168.348 235.366 166.121 235.927 L 163.817 236.487 L 161.512 237.048 L 160.391 236.3 L 159.27 235.552 C 157.37 234.291 155.486 232.679 153.438 230.526 C 151.39 228.373 149.179 225.679 146.626 222.254 C 144.353 219.187 141.503 214.904 138.793 210.544 C 136.084 206.184 133.514 201.746 131.802 198.367 C 130.821 196.437 130.268 195.339 129.995 194.724 C 129.722 194.109 129.73 193.976 129.871 193.976 C 129.902 193.976 130.525 194.669 131.506 195.782 C 132.487 196.895 133.826 198.429 135.29 200.111 M 238.249 207.276 C 238.281 207.526 238.343 207.954 238.409 208.444 C 238.475 208.934 238.545 209.487 238.592 209.986 C 238.747 211.31 239.214 213.513 239.779 215.736 C 240.343 217.959 241.005 220.201 241.55 221.603 C 242.578 224.265 243.512 226.056 244.891 227.559 C 246.269 229.062 248.091 230.277 250.893 231.787 C 252.481 232.659 255.027 233.905 257.624 235.112 C 260.22 236.319 260.27 237.425 260.737 238.484 C 260.987 239.029 260.429 242.138 260.351 242.901 C 260.118 245.221 259.557 247.74 259.024 249.711 C 258.491 251.681 257.969 253.463 257.844 253.587 C 257.813 253.618 247.935 250.04 245.976 249.37 C 244.017 248.701 243.18 248.343 242.471 247.875 C 242.478 247.939 242.326 237.009 242.242 232.9 C 242.089 230.773 241.553 230.195 240.849 229.254 C 239.965 228.469 238.343 227.162 235.166 224.593 C 234.06 223.689 231.678 221.883 229.521 220.287 C 227.364 218.691 225.434 217.305 225.232 217.243 C 224.811 217.088 225.457 216.13 226.691 214.853 C 227.925 213.576 229.747 211.98 231.678 210.547 C 233.001 209.582 234.473 208.554 235.649 207.767 C 236.825 206.981 237.704 206.436 237.844 206.436 C 237.907 206.436 237.985 206.53 238.058 206.681 C 238.132 206.833 238.202 207.043 238.249 207.277 M 190.85 209.083 C 191.909 209.457 193.512 210.033 195.248 210.655 C 196.984 211.278 198.853 211.947 200.442 212.508 C 202.03 213.084 203.758 213.7 205.265 214.225 C 206.772 214.751 208.056 215.187 208.757 215.405 C 209.473 215.639 210.12 215.864 210.587 216.043 C 211.054 216.222 211.342 216.354 211.342 216.401 C 211.342 216.448 210.914 216.588 210.221 216.775 C 209.528 216.962 208.57 217.195 207.511 217.429 C 206.468 217.678 205.098 218.005 203.735 218.332 C 202.372 218.659 201.018 218.986 200.006 219.235 C 197.841 219.749 196.884 220.061 196.113 219.776 C 195.342 219.492 194.758 218.612 193.341 216.744 C 190.211 212.649 188.389 210.235 187.428 208.895 C 186.467 207.556 186.366 207.291 186.677 207.494 C 186.77 207.557 187.291 207.767 188.051 208.055 C 188.81 208.343 189.807 208.709 190.85 209.083 M 313.241 220.605 C 316.791 221.088 319.003 221.587 321.245 222.891 C 323.487 224.195 325.761 226.305 329.436 230.011 C 333.734 234.355 338.444 239.665 342.788 244.982 C 347.132 250.3 351.111 255.625 353.945 260.001 C 354.895 261.465 356.149 263.637 357.165 265.518 C 358.181 267.398 358.959 268.987 358.959 269.282 C 358.959 269.438 358.585 269.585 356.724 269.939 C 354.863 270.293 351.515 270.854 345.568 271.835 C 336.288 273.346 326.625 274.669 318.232 275.615 C 309.839 276.561 302.715 277.13 298.511 277.13 C 297.218 277.13 296.549 277.122 296.085 276.99 C 295.622 276.858 295.365 276.601 294.898 276.102 C 294.104 275.261 289.806 270.115 285.454 264.84 C 281.102 259.565 276.335 254.29 275.323 252.935 L 267.567 244.342 C 267.567 244.342 274.891 243.819 275.799 243.398 C 276.707 242.977 277.551 242.218 279.45 240.973 C 283.981 237.999 289.136 234.153 293.55 230.548 C 297.964 226.943 301.639 223.58 303.212 221.571 L 303.757 220.87 L 304.302 220.169 L 305.657 220.153 L 307.012 220.137 C 307.76 220.137 308.834 220.191 309.963 220.277 C 311.092 220.363 312.275 220.479 313.24 220.604 M 225.605 224.841 C 227.131 225.978 228.673 227.13 229.938 228.076 C 231.203 229.022 232.192 229.762 232.612 230.073 C 233.516 230.742 234.232 231.459 234.781 232.237 C 235.33 233.015 235.711 233.856 235.945 234.775 C 236.163 235.663 236.35 238.777 236.439 241.904 C 236.528 245.03 236.521 248.167 236.35 249.101 L 236.225 249.786 L 236.1 250.471 L 234.076 251.312 L 232.052 252.153 C 225.512 254.878 221.362 256.583 217.75 258.008 C 214.137 259.433 211.062 260.577 206.67 262.181 C 205.004 262.804 203.081 263.513 201.329 264.159 C 199.577 264.805 197.997 265.389 197.016 265.763 C 194.01 266.9 188.249 268.908 183.215 270.613 C 178.181 272.318 173.876 273.719 173.782 273.642 C 173.642 273.486 174.654 269.943 175.978 265.708 C 177.302 261.473 178.937 256.544 180.043 253.617 C 182.55 246.999 184.847 241.393 186.781 237.154 C 188.716 232.915 190.288 230.042 191.348 228.889 C 192.017 228.142 192.788 227.597 194.244 227.025 C 195.7 226.453 197.841 225.853 201.252 224.997 C 203.821 224.358 207.94 223.393 211.68 222.544 C 215.421 221.695 218.785 220.963 219.843 220.792 C 219.921 220.792 220.606 221.244 221.649 221.976 C 222.692 222.708 224.093 223.72 225.604 224.841 M 178.86 240.132 C 178.33 241.3 177.248 244.087 176.06 247.283 C 174.872 250.479 173.58 254.084 172.63 256.887 C 170.949 261.823 169.718 265.708 168.885 268.74 C 168.052 271.773 167.616 273.952 167.523 275.478 C 167.445 276.599 167.421 277.261 167.495 277.767 C 167.569 278.273 167.74 278.624 168.052 279.122 C 168.534 279.916 169.111 280.547 169.882 281.076 C 170.653 281.605 171.618 282.034 172.879 282.423 C 174.078 282.781 176.515 283.264 179.369 283.727 C 182.223 284.19 185.493 284.634 188.358 284.914 L 190.18 285.101 L 192.002 285.288 L 191.519 286.176 L 191.037 287.063 C 190.024 288.854 189.448 289.843 188.969 290.431 C 188.49 291.019 188.109 291.206 187.486 291.392 C 187.143 291.486 186.295 291.68 185.201 291.918 C 184.107 292.156 182.768 292.436 181.445 292.7 C 175.247 293.931 168.574 295.005 161.921 295.854 C 155.268 296.703 148.634 297.325 142.515 297.652 C 137.548 297.932 134.418 298.088 132.144 298.15 C 129.871 298.212 128.454 298.181 126.912 298.088 L 125.401 297.994 L 123.891 297.9 L 124.187 296.873 L 124.483 295.845 C 125.074 293.743 127.013 289.725 129.474 285.268 C 131.934 280.811 134.916 275.913 137.594 272.051 C 142.406 265.153 147.809 258.395 152.617 253.093 C 157.425 247.791 161.637 243.945 164.067 242.871 C 165.126 242.403 166.55 241.952 168.255 241.535 C 169.96 241.118 171.946 240.737 174.126 240.41 C 176.633 240.036 177.864 239.85 178.444 239.815 C 179.024 239.78 178.954 239.897 178.861 240.13 M 207.138 285.756 C 207.076 285.912 206.842 286.558 206.515 287.477 C 206.188 288.396 205.767 289.587 205.331 290.833 C 204.615 292.857 204.218 294.079 203.981 295.173 C 203.743 296.267 203.665 297.232 203.587 298.743 L 203.493 300.44 L 203.4 302.137 L 202.341 302.495 L 201.282 302.853 C 199.663 303.398 197.817 303.873 195.711 304.29 C 193.605 304.706 191.238 305.064 188.575 305.375 C 185.555 305.702 179.544 305.889 173.326 305.92 C 167.109 305.951 160.685 305.827 156.839 305.531 C 154.41 305.329 150.665 304.947 147.504 304.593 C 144.343 304.239 141.766 303.912 141.673 303.818 C 141.657 303.787 142.381 303.701 143.565 303.585 C 144.748 303.468 146.391 303.32 148.213 303.164 C 155.89 302.541 165.357 301.35 173.537 300.077 C 181.716 298.804 188.607 297.449 191.129 296.5 C 191.581 296.329 192.351 295.651 193.091 294.849 C 193.831 294.047 194.539 293.12 194.866 292.451 C 194.991 292.218 195.294 291.665 195.684 290.964 C 196.073 290.263 196.548 289.414 197.015 288.589 L 197.872 287.079 L 198.729 285.569 L 199.819 285.507 L 200.909 285.445 C 203.914 285.305 205.534 285.243 206.371 285.286 C 207.208 285.329 207.263 285.476 207.138 285.756" style="stroke-width: 4;" fill="#60A5FA" stroke="#60A5FA"/>
</svg>