<?xml version="1.0" encoding="utf-8"?>
<svg xmlns="http://www.w3.org/2000/svg" viewBox="310.4064 96.8566 45.7547 73.9634" width="45.7547px" height="73.9634px">
  <path d="M 318.819 170.82 C 318.819 170.82 318.08 162.091 314.67 148.154 C 311.685 135.745 310.034 127.127 310.478 125.413 C 311.622 120.636 330.42 96.753 332.959 96.857 C 334.103 96.858 345.916 109.941 352.52 118.559 C 357.156 124.634 357.22 126.659 353.536 141.093 C 349.817 155.314 346.687 170.745 346.687 170.745 C 337.377 169.464 318.819 170.82 318.819 170.82 Z M 332.641 100.336 C 332.197 100.491 329.275 103.814 326.036 107.708 C 321.337 113.523 320.258 115.34 320.448 117.157 C 320.639 118.456 320.892 121.155 321.146 123.128 C 321.4 125.205 322.226 130.553 323.052 135.07 C 323.814 139.639 325.211 147.634 326.036 152.878 C 326.862 158.123 327.878 163.522 328.259 164.872 C 328.894 167.364 328.894 167.364 333.339 167.364 C 337.786 167.364 337.786 167.364 339.182 158.745 C 339.945 154.073 341.723 143.066 343.183 134.395 C 344.644 125.725 345.723 117.677 345.533 116.483 C 345.342 115.289 343.119 111.81 340.389 108.643 C 337.785 105.476 335.055 102.309 334.483 101.53 C 333.848 100.803 333.022 100.232 332.641 100.336 Z M 314.479 122.869 C 312.637 125.621 313.144 130.293 317.146 146.544 C 321.083 162.743 322.735 167.624 323.94 167.364 C 325.211 167.157 324.449 159.264 321.591 140.314 C 319.305 124.842 318.416 120.169 317.781 119.65 C 317.272 119.234 316.256 120.273 314.479 122.869 Z M 348.582 119.806 C 347.692 120.533 340.897 166.585 341.595 167.156 C 343.247 168.506 344.39 165.807 346.93 154.696 C 348.517 147.79 350.614 138.705 351.693 134.395 C 353.535 126.867 353.345 124.842 350.487 121.052 C 349.725 120.117 348.899 119.546 348.582 119.806 Z" fill="#60A5FA" stroke="#60A5FA"/>
</svg>
