<?xml version="1.0" encoding="utf-8"?>
<svg xmlns="http://www.w3.org/2000/svg" viewBox="167.4835 107.5101 27.9792 58.6199" width="27.9792px" height="58.6199px">
  <path d="M 176.519 166.058 C 176.519 166.058 175.612 159.426 174.362 155.157 C 173.01 150.619 170.697 141.92 169.268 135.84 C 166.496 124.828 166.496 124.828 172.572 116.885 C 179.492 107.88 180.278 107.116 181.766 107.633 C 184.082 108.436 194.927 121.373 195.397 123.849 C 195.903 126.258 193.361 152.576 191.909 160.448 C 191.634 161.818 191.125 166.13 191.125 166.13 C 185.915 165.622 181.387 165.706 176.519 166.058 Z M 185.906 116.008 C 182.624 112.556 182.624 112.556 181.782 114.178 C 180.882 116.099 179.7 121.193 180.081 121.964 C 180.509 122.83 189.005 121.312 189.096 120.386 C 189.142 119.923 187.706 117.989 185.906 116.008 Z M 175.162 118.66 C 170.926 123.812 170.177 125.067 170.397 126.898 C 170.707 130.436 176.736 156.218 177.207 156.063 C 177.407 156.053 177.211 151.358 176.739 145.69 C 176.314 140.119 176.002 133.39 176.086 130.787 C 176.169 128.183 176.135 125.619 175.932 125.07 C 175.764 124.453 175.831 123.759 176.055 123.518 C 176.313 123.208 176.884 121.732 177.291 120.198 C 178.008 116.937 177.156 116.322 175.162 118.66 Z M 191.115 123.639 C 189.84 123.276 179.895 125.329 179.509 126.073 C 177.79 129.384 179.358 162.632 181.259 163.292 C 181.921 163.522 183.95 163.747 185.801 163.752 C 189.103 163.781 189.103 163.781 189.902 157.358 C 190.793 150.568 192.226 129.767 192.151 126.152 C 192.099 124.938 191.611 123.811 191.115 123.639 Z" fill="#BF8080" stroke="#BF8080"/>
</svg>