<?xml version="1.0" encoding="utf-8"?>
<svg xmlns="http://www.w3.org/2000/svg" viewBox="229.42 83.404 51.441 82.7263" width="51.441px" height="82.7263px">
  <path d="M 255.141 90.081 C 255.008 90.184 254.284 90.717 253.923 91.559 C 253.562 92.401 253.103 93.551 252.578 94.886 C 252.055 96.22 251.465 97.738 250.843 99.315 C 250.222 100.892 249.566 102.529 248.911 104.1 C 247.676 107.037 246.75 109.24 246.064 111.053 C 245.378 112.866 244.932 114.288 244.656 115.664 C 244.381 117.041 244.278 118.372 244.276 120.002 C 244.275 121.63 244.376 123.558 244.51 126.127 C 244.6 127.541 244.707 129.193 244.825 130.97 C 244.942 132.745 245.072 134.645 245.206 136.554 C 245.34 138.463 245.481 140.381 245.621 142.194 C 245.761 144.007 245.902 145.714 246.036 147.2 C 246.238 149.771 246.403 151.756 246.506 153.341 C 246.609 154.926 246.651 156.112 246.609 157.085 C 246.567 158.058 246.441 158.817 246.208 159.549 C 245.974 160.281 245.866 160.586 245.394 161.45 C 244.977 162.244 249.845 160.401 254.791 160.383 C 259.261 160.366 265.544 162.455 265.128 161.66 C 264.656 160.797 264.307 160.283 264.073 159.551 C 263.84 158.819 263.714 158.06 263.672 157.087 C 263.63 156.114 263.672 154.928 263.775 153.343 C 263.878 151.757 264.043 149.773 264.245 147.203 C 264.38 145.716 264.52 144.009 264.66 142.196 C 264.8 140.383 264.941 138.466 265.075 136.556 C 265.209 134.647 265.339 132.748 265.456 130.971 C 265.574 129.196 265.681 127.543 265.771 126.13 C 265.905 123.56 266.006 121.633 266.005 120.003 C 266.003 118.374 265.9 117.044 265.625 115.667 C 265.349 114.29 264.903 112.868 264.217 111.055 C 263.531 109.242 262.605 107.039 261.37 104.103 C 260.715 102.531 260.06 100.895 259.438 99.317 C 258.816 97.74 258.227 96.222 257.703 94.888 C 257.178 93.554 256.719 92.404 256.358 91.562 C 255.997 90.719 255.273 90.184 255.141 90.081 Z M 255.148 83.404 C 255.423 83.444 256.332 83.805 256.948 84.364 C 257.565 84.924 258.359 85.739 259.349 86.799 C 260.338 87.858 261.523 89.163 262.916 90.705 C 264.311 92.246 265.916 94.022 267.747 96.025 L 267.748 96.026 C 269.364 97.769 270.936 99.481 272.392 101.079 C 273.848 102.679 275.19 104.166 276.346 105.46 C 277.502 106.755 278.474 107.856 279.19 108.684 C 279.905 109.512 280.365 110.068 280.5 110.269 C 280.724 110.618 280.837 111.527 280.857 112.752 C 280.879 113.977 280.809 115.519 280.669 117.134 C 280.529 118.75 280.318 120.439 280.059 121.958 C 279.799 123.477 279.49 124.826 279.154 125.762 C 278.996 126.239 278.439 129 277.691 132.874 C 276.943 136.747 276.006 141.733 275.087 146.658 C 274.168 151.584 273.27 156.45 272.601 160.085 C 271.932 163.719 271.493 166.123 271.493 166.123 C 271.461 166.307 261.973 162.949 254.818 162.975 C 247.8 163 238.82 166.304 238.788 166.121 C 238.788 166.121 238.349 163.717 237.68 160.083 C 237.011 156.448 236.113 151.583 235.194 146.656 C 234.275 141.73 233.338 136.745 232.59 132.872 C 231.842 128.998 231.285 126.237 231.128 125.76 C 230.791 124.823 230.482 123.475 230.222 121.955 C 229.963 120.436 229.752 118.747 229.612 117.133 C 229.472 115.517 229.402 113.975 229.424 112.75 C 229.444 111.525 229.557 110.616 229.781 110.267 C 229.916 110.065 230.376 109.51 231.092 108.682 C 231.807 107.854 232.779 106.752 233.935 105.457 C 235.091 104.163 236.433 102.676 237.889 101.077 C 239.346 99.479 240.917 97.768 242.533 96.024 L 242.534 96.024 L 242.534 96.023 C 244.365 94.02 245.97 92.243 247.365 90.702 C 248.759 89.161 249.943 87.856 250.932 86.796 C 251.922 85.737 252.717 84.921 253.333 84.362 C 253.949 83.802 254.872 83.444 255.148 83.404 Z M 250.437 92.939 C 250.437 92.737 250.347 92.672 250.101 92.809 C 249.856 92.946 249.455 93.282 248.831 93.883 C 248.208 94.485 247.364 95.351 246.231 96.542 C 245.099 97.734 243.679 99.253 241.905 101.162 C 240.984 102.172 240.102 103.158 239.299 104.077 C 238.495 104.996 237.767 105.848 237.156 106.587 C 236.544 107.325 236.047 107.952 235.703 108.421 C 235.36 108.89 235.169 109.203 235.169 109.313 C 235.169 109.515 235.518 109.91 236.056 110.388 C 236.595 110.866 237.325 111.429 238.088 111.965 C 238.088 111.965 238.088 111.965 238.088 111.965 C 238.851 112.502 239.649 113.014 240.322 113.392 C 240.996 113.769 241.547 114.012 241.816 114.012 C 241.928 114.012 242.524 112.759 243.353 110.864 C 244.182 108.968 245.246 106.43 246.295 103.861 C 247.345 101.291 248.38 98.689 249.154 96.665 C 249.927 94.641 250.438 93.196 250.438 92.939 L 250.437 92.939 Z M 233.285 111.81 L 233.285 111.811 C 233.173 111.811 233.083 111.93 233.014 112.145 C 232.944 112.359 232.897 112.668 232.869 113.049 C 232.841 113.429 232.832 113.882 232.842 114.381 C 232.852 114.88 232.88 115.426 232.925 115.995 C 233.059 117.151 233.43 119.455 233.952 122.445 C 234.474 125.436 235.148 129.115 235.888 133.02 C 236.629 136.925 237.438 141.057 238.229 144.957 C 239.02 148.857 239.795 152.524 240.469 155.497 C 240.851 157.26 241.142 158.595 241.384 159.576 C 241.625 160.557 241.816 161.183 241.996 161.528 C 242.175 161.871 242.343 161.933 242.54 161.786 C 242.737 161.637 242.961 161.279 243.253 160.784 C 243.5 160.361 243.685 159.815 243.804 158.963 C 243.924 158.108 243.977 156.947 243.961 155.295 C 243.944 153.644 243.857 151.5 243.695 148.683 C 243.534 145.865 243.298 142.372 242.984 138.022 C 242.602 132.846 242.315 128.963 242.043 126.008 C 241.771 123.053 241.513 121.024 241.187 119.555 C 240.862 118.087 240.469 117.179 239.927 116.462 C 239.386 115.746 238.695 115.223 237.775 114.526 C 237.258 114.159 236.747 113.805 236.265 113.482 C 235.782 113.159 235.327 112.865 234.923 112.617 C 234.519 112.369 234.165 112.167 233.885 112.027 C 233.604 111.887 233.396 111.809 233.284 111.809 L 233.285 111.81 Z M 259.843 92.941 C 259.843 93.198 260.354 94.644 261.127 96.667 C 261.901 98.691 262.936 101.293 263.986 103.863 C 265.035 106.433 266.099 108.97 266.928 110.866 C 267.757 112.761 268.353 114.014 268.465 114.014 C 268.735 114.014 269.285 113.771 269.959 113.393 C 270.632 113.016 271.43 112.505 272.193 111.968 C 272.957 111.431 273.686 110.869 274.225 110.39 C 274.764 109.911 275.112 109.517 275.112 109.315 C 275.112 109.205 274.921 108.893 274.578 108.423 C 274.234 107.954 273.737 107.328 273.125 106.589 C 272.514 105.851 271.786 104.999 270.983 104.08 C 270.179 103.16 269.297 102.174 268.376 101.164 C 266.602 99.255 265.182 97.736 264.05 96.545 C 262.917 95.353 262.073 94.488 261.45 93.886 C 260.827 93.285 260.425 92.947 260.18 92.811 C 259.934 92.674 259.844 92.739 259.844 92.941 L 259.843 92.941 Z M 276.997 111.811 C 276.885 111.811 276.677 111.889 276.396 112.03 C 276.116 112.169 275.762 112.371 275.358 112.619 C 274.954 112.867 274.5 113.161 274.016 113.484 C 273.534 113.808 273.023 114.161 272.507 114.528 C 271.586 115.225 270.895 115.749 270.354 116.465 C 269.812 117.181 269.419 118.089 269.094 119.558 C 268.768 121.026 268.51 123.055 268.238 126.011 C 267.966 128.966 267.679 132.848 267.298 138.024 C 266.983 142.375 266.747 145.867 266.586 148.685 C 266.425 151.502 266.337 153.645 266.32 155.297 C 266.304 156.95 266.357 158.111 266.477 158.964 C 266.596 159.818 266.781 160.364 267.028 160.786 C 267.32 161.282 267.544 161.639 267.741 161.788 C 267.938 161.936 268.106 161.874 268.285 161.53 C 268.465 161.185 268.656 160.559 268.897 159.578 C 269.139 158.597 269.431 157.262 269.812 155.499 C 270.486 152.526 271.261 148.858 272.052 144.96 C 272.843 141.06 273.652 136.927 274.393 133.023 C 275.134 129.117 275.807 125.438 276.329 122.448 C 276.851 119.457 277.222 117.153 277.356 115.997 C 277.401 115.428 277.429 114.882 277.439 114.383 C 277.449 113.884 277.44 113.432 277.412 113.052 C 277.384 112.671 277.337 112.362 277.268 112.147 C 277.198 111.932 277.109 111.813 276.996 111.813 L 276.996 111.812 L 276.997 111.811 Z" fill="#60A5FA" stroke="#60A5FA" />
</svg>
