<?xml version="1.0" encoding="utf-8"?>
<svg fill="#FFA6C9" stroke="#FFA6C9" xmlns="http://www.w3.org/2000/svg" viewBox="124.3975 124.5508 299.9454 288.2066" width="299.945px" height="288.207px">
  <path d="M 268.136 124.944 C 249.19 126.858 233.409 131.428 216.963 139.827 C 203.212 146.82 192.391 154.671 181.061 165.883 C 174.421 172.485 168.834 179.282 163.014 187.954 C 159.615 192.993 158.756 194.556 158.756 195.649 C 158.756 197.915 161.217 199.595 163.209 198.657 C 163.678 198.462 165.983 195.415 168.327 191.899 C 178.952 176 190.751 164.008 205.634 154.046 C 224.541 141.39 245.245 133.968 268.918 131.35 C 274.347 130.764 289.465 130.764 295.09 131.35 C 330.951 135.1 362.67 151.781 386.03 179.086 C 387.788 181.157 389.507 182.993 389.858 183.11 C 391.108 183.579 392.28 183.305 393.296 182.329 C 394.468 181.118 394.624 179.672 393.647 178.266 C 390.561 173.735 378.569 161.586 371.811 156.156 C 358.178 145.218 343.764 137.249 327.513 131.702 C 318.802 128.733 307.083 126.116 298.997 125.334 C 297.59 125.178 296.028 124.983 295.481 124.866 C 292.981 124.397 273.097 124.475 268.136 124.944" style="stroke-width: 5px;"/>
  <path d="M 418.961 280.887 C 418.297 281.473 418.062 282.293 417.711 285.106 C 415.992 300.575 411.265 316.357 404.038 330.693 C 400.405 337.881 393.647 348.155 387.514 355.811 C 383.491 360.811 372.514 371.788 367.748 375.617 C 358.921 382.648 350.131 388.156 339.936 393.117 C 326.537 399.563 314.427 403.157 298.411 405.5 C 291.731 406.438 273.136 406.438 265.988 405.5 C 247.706 403.039 230.948 397.531 216.494 389.289 C 213.759 387.726 211.142 386.476 210.595 386.476 C 208.955 386.476 207.587 387.883 207.587 389.562 C 207.587 390.344 207.822 391.281 208.095 391.633 C 208.33 391.984 210.283 393.234 212.431 394.484 C 229.385 404.172 248.917 410.344 268.722 412.337 C 274.777 412.923 290.129 412.884 295.872 412.298 C 338.022 407.766 375.365 385.539 399.702 350.42 C 407.398 339.326 413.882 326.591 417.789 314.911 C 420.719 306.083 423.453 293.465 424.195 285.223 C 424.469 282.371 424.43 282.176 423.492 281.238 C 422.281 280.027 420.211 279.871 418.961 280.887 M 158.756 302.45 C 155.826 303.348 152.623 306.278 151.49 309.13 C 151.138 309.989 150.787 310.692 150.709 310.692 C 150.592 310.692 149.888 310.419 149.107 310.107 C 147.154 309.286 142.544 309.364 140.591 310.263 C 135.786 312.45 133.013 317.997 134.107 323.193 C 135.825 331.279 143.091 337.217 157.662 342.49 C 162.701 344.326 165.162 344.678 166.217 343.78 C 168.522 341.905 173.405 328.193 174.381 320.849 C 175.007 316.2 174.303 312.021 172.233 308.544 C 170.905 306.239 167.702 303.466 165.514 302.723 C 163.6 302.059 160.436 301.942 158.756 302.45 M 163.717 308.935 C 165.045 309.286 167.272 312.021 167.78 313.896 C 168.952 318.232 167.467 325.576 163.248 335.967 L 162.584 337.607 L 159.42 336.436 C 155.084 334.873 150.904 332.881 147.584 330.771 C 142.857 327.842 140.435 324.443 140.396 320.732 C 140.396 319.169 140.591 318.662 141.685 317.49 C 143.99 314.99 147.545 315.302 150.748 318.271 C 151.764 319.208 152.623 319.482 154.068 319.326 C 155.084 319.208 156.412 317.372 156.412 316.044 C 156.412 312.724 158.248 309.403 160.436 308.778 C 161.686 308.427 162.037 308.466 163.717 308.935 M 183.327 343.858 C 181.257 344.287 178.561 346.006 176.96 347.881 C 175.592 349.483 174.381 352.491 174.381 354.327 C 174.381 355.147 174.225 355.225 172.233 355.225 C 165.748 355.225 160.592 360.225 160.592 366.515 C 160.592 370.304 162.037 373.273 165.241 376.32 C 169.303 380.109 174.85 382.297 183.561 383.547 C 187.507 384.133 196.454 384.328 197.626 383.898 C 198.681 383.468 199.306 381.711 199.735 377.843 C 201.454 362.022 200.009 353.272 194.696 347.881 C 191.454 344.561 187.116 343.037 183.327 343.858 M 188.249 350.772 C 192.001 352.53 193.915 358.155 193.915 367.218 C 193.876 371.984 193.446 377.335 192.977 377.765 C 192.665 378.117 183.366 377.101 179.694 376.281 C 172.975 374.835 168.444 371.866 167.311 368.194 C 166.725 366.163 167.077 364.796 168.717 363.155 C 169.85 362.022 170.241 361.866 172.116 361.866 C 173.327 361.866 174.889 362.218 175.905 362.647 C 178.171 363.702 179.304 363.624 180.515 362.413 C 181.569 361.358 181.569 361.554 180.788 356.671 C 180.632 355.694 180.788 354.561 181.218 353.428 C 182.351 350.459 185.28 349.366 188.249 350.772 M 140.318 205.18 C 137.622 206.235 136.177 207.446 134.732 209.712 C 130.825 215.806 131.528 224.282 136.763 234.127 C 139.38 239.01 143.912 245.689 145.045 246.314 C 146.49 247.135 147.974 246.705 152.193 244.244 C 162.272 238.463 168.483 232.916 171.335 227.173 C 173.835 222.173 173.131 216.235 169.655 212.72 C 167.155 210.219 165.006 209.321 161.49 209.36 C 158.756 209.36 157.623 209.712 154.381 211.391 C 154.264 211.47 154.029 211.118 153.873 210.649 C 153.404 209.243 150.904 206.782 148.834 205.727 C 146.177 204.399 142.818 204.165 140.318 205.18 M 146.646 211.938 C 148.052 212.915 149.107 214.673 149.849 217.329 C 150.513 219.634 152.31 220.806 154.107 220.064 C 154.771 219.79 155.709 219.009 156.256 218.306 C 157.584 216.548 159.85 215.61 162.076 215.845 C 166.647 216.392 167.897 221.353 164.616 226.118 C 162.975 228.501 158.443 232.564 154.693 235.064 C 151.529 237.134 147.427 239.4 147.271 239.127 C 140.005 228.619 137.076 219.126 139.497 214.204 C 141.021 211.118 144.068 210.18 146.646 211.938 M 150.357 256.237 C 148.756 256.823 146.06 258.776 145.162 259.987 C 144.693 260.612 144.537 260.534 142.662 259.166 C 140.162 257.252 137.974 256.627 134.732 256.862 C 130.435 257.213 126.333 260.456 124.966 264.557 C 123.989 267.487 124.302 272.175 125.669 275.456 C 127.896 280.847 133.911 288.035 140.748 293.465 C 146.49 297.996 146.763 298.035 150.435 294.363 C 156.139 288.738 160.436 283.152 162.975 278.073 C 165.006 274.011 165.514 272.097 165.553 268.307 C 165.553 265.651 165.397 264.792 164.459 262.721 C 161.92 257.213 155.631 254.323 150.357 256.237 M 156.842 263.073 C 158.131 263.971 159.147 266.432 159.147 268.698 C 159.147 270.847 157.936 274.128 155.865 277.644 C 154.264 280.3 149.342 286.433 147.154 288.542 L 145.982 289.636 L 142.193 286.277 C 132.036 277.214 128.325 269.245 132.232 264.792 C 134.38 262.331 137.661 262.604 140.162 265.417 C 140.943 266.237 141.568 267.096 141.568 267.292 C 141.568 267.448 141.998 268.073 142.544 268.659 C 144.224 270.456 146.998 269.792 147.974 267.292 C 148.326 266.471 149.224 265.065 150.006 264.206 C 152.115 261.901 154.576 261.471 156.842 263.073" style="stroke-width: 5px;"/>
  <path d="M 247.225 186.231 C 239.013 189.595 229.415 195.268 222.818 200.611 C 219.388 203.382 211.835 210.967 209.163 214.332 C 198.873 227.327 192.211 242.663 189.637 259.352 C 188.748 264.96 188.748 280.33 189.603 286.068 C 190.859 294.413 193.301 302.856 196.828 310.97 C 203.886 327.231 216.617 342.369 231.724 352.396 C 247.06 362.587 263.551 367.832 281.361 368.194 C 288.486 368.326 293.004 368.029 298.777 367.04 C 314.376 364.402 327.273 358.794 340.565 348.933 C 344.72 345.833 354.45 336.4 357.449 332.574 C 363.982 324.163 367.906 317.533 371.566 308.628 C 373.088 304.934 374.866 299.788 374.866 299.097 C 374.866 298.931 374.469 298.371 374.008 297.81 C 373.383 297.051 372.887 296.788 372.062 296.788 C 370.348 296.788 369.488 297.843 368.269 301.57 C 362.003 320.469 348.151 337.917 330.406 349.197 C 327.041 351.308 318.994 355.364 315.003 356.914 C 309.033 359.223 301.679 361.037 293.895 362.159 C 288.948 362.851 276.382 362.653 270.642 361.796 C 261.408 360.41 254.283 358.135 245.082 353.682 C 235.747 349.164 229.118 344.381 221.07 336.433 C 211.868 327.362 205.404 317.632 200.588 305.66 C 192.672 285.937 192.146 263.805 199.071 243.851 C 205.667 224.92 219.487 207.934 236.77 197.544 C 240.199 195.499 247.489 191.97 250.524 190.915 C 252.964 190.057 254.151 189.001 254.151 187.617 C 254.151 186.462 252.997 185.077 251.842 184.846 C 251.315 184.747 249.633 185.242 247.225 186.231" style="stroke-width: 7px;"/>
  <path d="M 309.66 161.89 C 309.265 162.055 308.671 162.582 308.341 163.11 C 307.813 163.902 307.747 164.759 307.78 170.3 C 307.78 176.138 307.846 176.765 308.671 179.469 C 309.165 181.053 310.188 183.593 310.947 185.077 C 311.738 186.561 312.398 187.88 312.464 188.012 C 312.53 188.111 311.475 187.847 310.155 187.419 C 308.836 186.957 305.538 186.033 302.8 185.341 C 298.215 184.153 297.754 183.988 296.269 182.669 C 293.796 180.459 289.838 177.952 287.067 176.798 C 282.78 175.017 280.669 174.654 275.26 174.852 C 270.015 175.049 266.289 175.842 262.298 177.689 C 260.483 178.48 260.121 178.81 259.792 179.8 C 259.264 181.383 259.659 182.043 262.759 184.813 C 272.424 193.322 282.879 195.399 294.192 191.046 C 295.775 190.42 297.424 189.924 297.82 189.924 C 299.469 189.924 314.839 194.213 314.839 194.675 C 314.839 194.741 313.849 194.971 312.629 195.202 C 306.758 196.225 301.151 199.358 295.808 204.602 C 293.07 207.307 292.642 209.318 294.587 210.605 C 297.127 212.254 305.57 213.837 310.551 213.54 C 314.674 213.31 317.016 212.749 320.676 211.033 C 324.107 209.451 325.887 208.197 328.856 205.361 C 330.176 204.141 331.363 203.118 331.462 203.118 C 331.989 203.118 338.949 208.065 342.709 211.099 C 346.37 214.035 353.758 220.895 353.758 221.324 C 353.758 221.423 353.066 221.258 352.207 220.929 C 346.469 218.785 337.201 219.411 329.845 222.478 C 326.052 224.029 325.756 225.777 328.79 228.614 C 336.408 235.737 345.974 239.069 354.647 237.618 C 357.779 237.09 360.193 236.397 362.729 235.309 L 363.951 234.781 L 365.632 237.618 C 368.005 241.641 370.613 246.952 372.357 251.305 C 373.186 253.35 373.879 255.164 373.879 255.296 C 373.879 255.428 372.72 254.604 371.336 253.416 C 367.346 250.085 362.071 247.743 356.328 246.82 C 351.646 246.061 349.931 246.16 348.91 247.182 C 348.184 247.908 348.085 248.238 348.216 249.59 C 348.547 252.921 352.966 260.606 356.658 264.234 C 359.3 266.839 360.424 267.632 363.853 269.28 C 367.214 270.896 370.613 271.886 374.799 272.38 C 376.385 272.579 377.667 272.777 377.735 272.81 C 378.031 273.14 378.531 283.496 378.33 286.233 C 378.098 290.092 378.36 291.18 379.715 291.808 C 380.899 292.368 381.664 292.236 382.682 291.379 L 383.602 290.587 L 383.704 285.178 L 383.802 279.769 L 385.025 279.34 C 393.007 276.537 399.766 269.61 402.601 261.397 C 404.32 256.351 405.11 248.93 404.089 247.545 C 403.161 246.358 401.844 246.226 399.472 247.116 C 392.379 249.788 385.718 255.527 382.353 261.859 L 381.566 263.41 L 380.472 259.056 C 379.549 255.262 377.667 249.755 376.021 245.896 L 375.491 244.61 L 376.911 243.093 C 383.836 235.704 386.508 224.887 383.901 214.859 C 383.144 211.891 380.899 207.01 379.98 206.153 C 378.261 204.668 376.978 205.328 373.845 209.285 C 369.553 214.694 367.085 220.895 366.885 226.931 C 366.851 227.986 366.718 228.713 366.585 228.581 C 366.488 228.448 365.303 226.865 363.951 225.051 C 362.631 223.238 360.386 220.467 358.966 218.917 L 356.427 216.08 L 357.219 214.134 C 359.099 209.451 359.693 202.062 358.607 197.445 C 357.156 191.476 354.054 185.967 349.47 181.383 C 347.161 179.041 346.7 178.712 345.677 178.712 C 344.027 178.712 343.138 179.734 342.28 182.537 C 340.994 186.726 340.532 189.661 340.532 193.388 C 340.532 196.852 341.225 201.535 341.916 202.854 C 342.082 203.184 342.181 203.448 342.082 203.448 C 342.016 203.448 340.565 202.492 338.85 201.337 C 337.135 200.15 334.265 198.302 332.484 197.214 L 329.185 195.235 L 329.285 190.684 C 329.45 183.988 328.494 179.8 325.657 174.852 C 323.249 170.63 317.544 165.09 313.19 162.747 C 311.243 161.725 310.551 161.56 309.66 161.89 M 398.279 256.945 C 396.47 263.971 391.985 269.973 386.081 273.14 L 384.431 274.03 L 384.431 273.272 C 384.431 271.656 385.815 267.17 387.103 264.498 C 388.193 262.289 389.045 261.167 391.322 258.891 C 394.328 255.923 398.68 252.987 398.877 253.779 C 398.942 254.043 398.68 255.461 398.279 256.945 M 361.707 253.943 C 364.542 255.032 368.172 257.44 369.954 259.419 C 371.896 261.562 375.132 266.609 374.799 266.938 C 374.735 267.004 373.345 266.775 371.733 266.444 C 364.939 264.96 359.462 260.804 355.636 254.174 C 355.142 253.317 354.747 252.493 354.747 252.328 C 354.747 251.866 358.671 252.789 361.707 253.943 M 350.294 225.876 C 351.58 226.271 353.494 227.063 354.581 227.591 C 356.559 228.581 359.33 230.494 359.364 230.856 C 359.398 231.483 355.57 232.241 351.712 232.407 C 346.7 232.571 344.193 232.077 340.433 230.163 C 337.695 228.779 334.628 226.832 334.628 226.503 C 334.628 226.271 336.508 225.71 338.916 225.216 C 341.488 224.688 347.689 225.051 350.294 225.876 M 379.386 221.951 C 379.549 225.15 379.45 226.172 378.856 228.547 C 377.8 232.539 374.568 238.64 373.879 237.848 C 373.746 237.716 373.383 236.628 373.054 235.473 C 372.327 232.768 372.062 227.657 372.49 224.887 C 372.918 222.017 374.568 217.862 376.252 215.288 L 377.637 213.177 L 378.428 215.652 C 378.988 217.432 379.253 219.18 379.386 221.951 M 323.117 200.512 C 324.37 200.744 325.392 201.04 325.392 201.172 C 325.392 201.732 321.533 204.503 318.961 205.757 C 317.511 206.482 315.367 207.307 314.179 207.636 C 311.574 208.296 306.329 208.362 303.163 207.735 L 300.887 207.307 L 302.338 206.02 C 305.274 203.448 309.627 201.271 313.354 200.479 C 315.334 200.083 320.511 200.116 323.117 200.512 M 348.448 188.408 C 352.009 193.125 353.428 196.918 353.659 202.128 C 353.791 206.02 353.231 210.572 352.603 210.506 C 352.009 210.473 349.799 207.274 348.283 204.272 C 346.567 200.777 345.842 197.775 345.842 193.75 C 345.842 190.783 346.436 186.626 346.864 186.626 C 346.963 186.626 347.689 187.419 348.448 188.408 M 283.044 181.118 C 284.297 181.581 285.88 182.174 286.507 182.504 C 288.189 183.361 292.048 185.769 292.081 185.967 C 292.081 186.231 290.3 186.858 287.793 187.419 C 283.275 188.474 278.129 187.88 273.775 185.803 C 271.369 184.648 267.673 182.174 267.673 181.712 C 267.673 181.416 269.389 180.888 271.962 180.361 C 274.601 179.833 280.405 180.228 283.044 181.118 M 316.422 171.949 C 321.271 176.435 323.645 181.515 323.975 188.012 C 324.074 189.991 324.074 191.574 323.909 191.574 C 323.315 191.574 320.379 188.902 318.533 186.692 C 315.036 182.438 313.321 177.985 312.959 172.048 C 312.76 169.179 312.793 169.08 313.387 169.41 C 313.751 169.608 315.102 170.762 316.422 171.949" style="stroke-width: 3px;"/>
</svg>