<?xml version="1.0" encoding="utf-8"?>
<svg fill="#FFA6C9" xmlns="http://www.w3.org/2000/svg" viewBox="215.9789 277.6384 100.5373 77.9376" width="100.537px" height="77.9376px">
  <path d="M 250.948 346.432 C 250.395 346.787 249.775 347.24 249.311 347.591 C 248.848 347.94 248.438 348.283 248.099 348.606 C 247.981 348.719 247.867 348.827 247.762 348.924 C 247.656 349.021 247.56 349.109 247.477 349.18 C 247.395 349.252 247.325 349.309 247.276 349.347 C 247.226 349.384 247.195 349.402 247.19 349.397 C 247.161 349.366 247.128 349.279 247.094 349.156 C 247.06 349.033 247.023 348.874 246.99 348.702 C 246.957 348.529 246.927 348.342 246.904 348.164 C 246.883 347.986 246.866 347.814 246.863 347.672 C 246.852 347.412 246.846 347.209 246.848 347.048 C 246.85 346.886 246.858 346.766 246.877 346.667 C 246.897 346.568 246.927 346.491 246.972 346.417 C 247.015 346.344 247.074 346.274 247.15 346.188 C 247.355 345.956 247.743 345.654 248.25 345.316 C 248.757 344.977 249.383 344.603 250.196 344.268 C 250.569 344.072 251.511 343.614 251.6 343.546 C 251.818 343.384 252.045 343.186 252.27 342.967 C 252.494 342.748 252.715 342.51 252.919 342.266 C 253.123 342.023 253.31 341.774 253.469 341.539 C 253.627 341.302 253.756 341.077 253.842 340.879 C 253.905 340.73 253.953 340.604 253.987 340.473 C 254.022 340.341 254.044 340.203 254.056 340.027 C 254.067 339.852 254.068 339.637 254.061 339.355 C 254.054 339.072 254.039 338.72 254.017 338.268 C 253.971 337.324 253.958 336.499 253.982 335.764 C 254.005 335.029 254.066 334.385 254.169 333.806 C 254.272 333.226 254.415 332.711 254.606 332.233 C 254.797 331.755 255.034 331.314 255.322 330.883 C 255.53 330.578 255.75 330.288 256.007 329.988 C 256.264 329.689 256.559 329.38 256.917 329.038 C 257.275 328.697 257.695 328.321 258.204 327.889 C 258.713 327.456 259.31 326.966 260.022 326.395 C 260.359 326.124 260.713 325.832 261.065 325.538 C 261.416 325.245 261.765 324.949 262.092 324.669 C 262.419 324.387 262.723 324.12 262.985 323.885 C 263.247 323.649 263.468 323.446 263.626 323.29 C 263.785 323.137 263.938 322.991 264.077 322.86 C 264.217 322.728 264.344 322.611 264.454 322.512 C 264.563 322.414 264.653 322.336 264.718 322.284 C 264.783 322.231 264.823 322.205 264.832 322.21 C 264.858 322.229 264.892 322.407 264.927 322.688 C 264.962 322.97 265 323.353 265.035 323.783 C 265.069 324.212 265.1 324.685 265.123 325.145 C 265.146 325.605 265.161 326.05 265.162 326.425 C 265.168 327.099 265.156 327.736 265.125 328.34 C 265.094 328.944 265.044 329.515 264.973 330.055 C 264.904 330.595 264.815 331.102 264.706 331.582 C 264.597 332.061 264.468 332.511 264.319 332.934 C 264.04 333.717 263.726 334.421 263.345 335.077 C 262.964 335.732 262.517 336.342 261.975 336.934 C 261.434 337.526 260.798 338.102 260.039 338.693 C 259.28 339.284 258.397 339.889 257.362 340.542 C 256.995 340.776 256.66 340.998 256.367 341.2 C 256.074 341.401 255.823 341.582 255.624 341.735 C 255.427 341.889 255.283 342.012 255.203 342.101 C 255.124 342.19 255.109 342.243 255.168 342.252 C 255.212 342.253 255.611 342.061 256.213 341.754 C 256.814 341.448 257.62 341.028 258.476 340.576 C 259.332 340.123 260.613 339.42 261.728 338.796 C 262.842 338.172 263.79 337.629 263.979 337.499 C 264.167 337.37 264.355 337.24 264.503 337.137 C 264.65 337.035 264.758 336.961 264.786 336.94 C 265.062 336.736 265.272 336.579 265.44 336.442 C 265.607 336.304 265.734 336.188 265.841 336.064 C 265.949 335.942 266.037 335.814 266.132 335.652 C 266.226 335.492 266.326 335.299 266.455 335.047 C 266.524 334.906 266.603 334.736 266.686 334.547 C 266.769 334.36 266.856 334.156 266.942 333.947 C 267.028 333.739 267.112 333.527 267.19 333.324 C 267.267 333.12 267.338 332.926 267.396 332.755 C 267.526 332.389 267.671 331.943 267.815 331.479 C 267.959 331.014 268.103 330.53 268.228 330.086 C 268.354 329.642 268.463 329.238 268.537 328.933 C 268.612 328.628 268.653 328.423 268.644 328.376 C 268.641 328.365 268.629 328.342 268.608 328.312 C 268.587 328.283 268.558 328.246 268.525 328.207 C 268.492 328.167 268.452 328.123 268.41 328.08 C 268.367 328.036 268.321 327.991 268.275 327.949 C 268.167 327.848 268.056 327.723 267.95 327.581 C 267.844 327.441 267.742 327.285 267.65 327.124 C 267.558 326.964 267.477 326.796 267.411 326.635 C 267.344 326.472 267.295 326.314 267.267 326.169 C 267.239 326.026 267.227 325.845 267.227 325.642 C 267.227 325.438 267.24 325.213 267.264 324.983 C 267.287 324.754 267.324 324.521 267.368 324.299 C 267.413 324.078 267.467 323.87 267.529 323.693 C 267.689 323.241 267.926 322.824 268.215 322.458 C 268.504 322.093 268.845 321.779 269.212 321.534 C 269.579 321.29 269.971 321.115 270.363 321.027 C 270.754 320.94 271.145 320.939 271.509 321.044 C 271.925 321.164 272.285 321.397 272.578 321.713 C 272.872 322.029 273.101 322.43 273.253 322.884 C 273.406 323.339 273.483 323.849 273.475 324.385 C 273.467 324.922 273.373 325.485 273.184 326.046 C 273.087 326.33 272.962 326.596 272.813 326.84 C 272.664 327.084 272.489 327.307 272.293 327.507 C 272.097 327.706 271.878 327.881 271.64 328.029 C 271.402 328.177 271.145 328.299 270.869 328.391 C 270.713 328.444 270.591 328.496 270.482 328.59 C 270.373 328.682 270.275 328.816 270.173 329.033 C 270.07 329.248 269.962 329.546 269.828 329.969 C 269.694 330.39 269.535 330.935 269.332 331.644 C 269.277 331.833 269.216 332.038 269.152 332.245 C 269.088 332.451 269.022 332.662 268.957 332.862 C 268.893 333.063 268.832 333.253 268.775 333.422 C 268.719 333.591 268.669 333.737 268.629 333.849 C 268.588 333.962 268.547 334.07 268.512 334.171 C 268.475 334.272 268.442 334.364 268.415 334.443 C 268.387 334.521 268.366 334.588 268.352 334.636 C 268.337 334.685 268.33 334.715 268.332 334.722 C 268.339 334.758 268.627 334.591 269.081 334.299 C 269.534 334.007 270.154 333.59 270.823 333.128 C 271.492 332.666 272.211 332.159 272.865 331.687 C 273.518 331.215 274.105 330.777 274.511 330.454 C 275.19 329.915 275.747 329.456 276.206 329.047 C 276.666 328.639 277.027 328.28 277.319 327.941 C 277.61 327.602 277.829 327.284 278.003 326.954 C 278.178 326.625 278.306 326.285 278.416 325.905 C 278.487 325.652 278.542 325.403 278.584 325.156 C 278.625 324.908 278.651 324.663 278.662 324.418 C 278.674 324.173 278.67 323.931 278.653 323.687 C 278.635 323.444 278.602 323.2 278.554 322.955 C 278.512 322.736 278.467 322.545 278.408 322.355 C 278.35 322.164 278.277 321.975 278.179 321.759 C 278.081 321.544 277.958 321.303 277.798 321.01 C 277.638 320.717 277.441 320.373 277.196 319.949 C 276.847 319.36 276.555 318.784 276.317 318.212 C 276.079 317.639 275.897 317.072 275.766 316.499 C 275.635 315.927 275.558 315.35 275.531 314.758 C 275.503 314.168 275.526 313.562 275.598 312.935 C 275.635 312.637 275.678 312.353 275.736 312.059 C 275.794 311.766 275.867 311.463 275.961 311.13 C 276.055 310.796 276.17 310.431 276.311 310.012 C 276.454 309.592 276.624 309.119 276.828 308.57 C 277.03 308.021 277.229 307.432 277.419 306.832 C 277.609 306.233 277.789 305.622 277.952 305.034 C 278.114 304.445 278.257 303.876 278.374 303.359 C 278.49 302.842 278.581 302.377 278.636 301.994 C 278.667 301.751 278.696 301.557 278.723 301.403 C 278.75 301.249 278.776 301.136 278.802 301.055 C 278.828 300.976 278.856 300.928 278.885 300.906 C 278.914 300.884 278.947 300.886 278.984 300.908 C 279.081 300.96 279.318 301.224 279.629 301.61 C 279.94 301.995 280.327 302.504 280.726 303.046 C 281.124 303.588 281.533 304.163 281.89 304.685 C 282.246 305.206 282.549 305.672 282.734 305.996 C 283 306.474 283.221 306.886 283.409 307.264 C 283.598 307.642 283.753 307.986 283.889 308.327 C 284.025 308.669 284.14 309.006 284.248 309.373 C 284.356 309.74 284.457 310.135 284.564 310.591 C 284.708 311.2 284.81 311.767 284.87 312.307 C 284.931 312.847 284.948 313.362 284.926 313.865 C 284.901 314.369 284.836 314.862 284.73 315.361 C 284.622 315.86 284.473 316.364 284.282 316.89 C 284.171 317.197 284.049 317.5 283.912 317.81 C 283.774 318.12 283.618 318.439 283.441 318.778 C 283.262 319.116 283.062 319.476 282.831 319.868 C 282.6 320.26 282.341 320.685 282.045 321.155 C 281.93 321.34 281.814 321.532 281.702 321.72 C 281.59 321.909 281.483 322.094 281.386 322.266 C 281.289 322.438 281.202 322.596 281.132 322.73 C 281.062 322.865 281.008 322.976 280.977 323.053 C 280.897 323.24 280.814 323.473 280.738 323.717 C 280.662 323.961 280.591 324.217 280.536 324.449 C 280.48 324.681 280.44 324.889 280.421 325.037 C 280.402 325.185 280.406 325.273 280.44 325.267 C 280.504 325.254 280.762 325.031 281.132 324.68 C 281.501 324.329 281.985 323.85 282.499 323.327 C 283.013 322.803 283.558 322.236 284.053 321.707 C 284.548 321.177 284.993 320.687 285.305 320.317 C 285.686 319.869 286.133 319.296 286.599 318.671 C 287.064 318.046 287.546 317.367 287.999 316.706 C 288.452 316.044 288.874 315.4 289.219 314.842 C 289.564 314.285 289.83 313.814 289.97 313.502 C 290.134 313.139 290.261 312.78 290.352 312.425 C 290.443 312.069 290.496 311.717 290.513 311.365 C 290.531 311.013 290.512 310.662 290.457 310.311 C 290.402 309.96 290.311 309.608 290.183 309.253 C 290.091 309.004 289.985 308.765 289.859 308.531 C 289.733 308.298 289.588 308.07 289.419 307.843 C 289.251 307.616 289.059 307.389 288.841 307.159 C 288.622 306.928 288.377 306.693 288.1 306.449 C 287.632 306.033 287.224 305.622 286.866 305.201 C 286.509 304.779 286.203 304.348 285.943 303.894 C 285.681 303.439 285.463 302.96 285.281 302.444 C 285.099 301.929 284.953 301.374 284.835 300.768 C 284.774 300.452 284.723 300.113 284.682 299.728 C 284.641 299.343 284.61 298.911 284.586 298.408 C 284.563 297.905 284.548 297.331 284.539 296.661 C 284.531 295.99 284.529 295.224 284.533 294.337 C 284.533 293.344 284.532 292.538 284.53 291.879 C 284.528 291.219 284.523 290.705 284.516 290.295 C 284.509 289.885 284.499 289.577 284.484 289.332 C 284.471 289.086 284.454 288.9 284.431 288.734 C 284.422 288.657 284.413 288.583 284.407 288.516 C 284.4 288.45 284.395 288.389 284.393 288.338 C 284.39 288.287 284.392 288.245 284.395 288.215 C 284.398 288.186 284.404 288.169 284.414 288.167 C 284.421 288.165 284.446 288.177 284.485 288.198 C 284.524 288.219 284.577 288.25 284.638 288.288 C 284.7 288.327 284.772 288.374 284.85 288.425 C 284.929 288.477 285.012 288.534 285.097 288.594 C 285.723 289.036 286.36 289.553 286.981 290.115 C 287.601 290.677 288.204 291.283 288.761 291.901 C 289.32 292.52 289.831 293.15 290.269 293.763 C 290.707 294.376 291.071 294.968 291.331 295.512 C 291.419 295.698 291.494 295.872 291.563 296.047 C 291.632 296.223 291.693 296.403 291.753 296.601 C 291.813 296.8 291.87 297.018 291.93 297.272 C 291.99 297.526 292.052 297.816 292.122 298.159 C 292.25 298.789 292.341 299.361 292.395 299.912 C 292.448 300.463 292.463 300.993 292.438 301.54 C 292.414 302.087 292.348 302.65 292.241 303.267 C 292.134 303.883 291.985 304.553 291.791 305.314 C 291.728 305.566 291.673 305.807 291.626 306.033 C 291.58 306.26 291.541 306.473 291.51 306.672 C 291.48 306.869 291.458 307.051 291.444 307.214 C 291.431 307.378 291.426 307.522 291.43 307.646 C 291.436 307.838 291.459 308.116 291.49 308.426 C 291.522 308.734 291.563 309.075 291.605 309.389 C 291.646 309.704 291.689 309.996 291.726 310.207 C 291.763 310.418 291.793 310.55 291.81 310.547 C 291.835 310.542 291.925 310.379 292.062 310.104 C 292.199 309.829 292.383 309.441 292.592 308.984 C 292.802 308.526 294.147 306.035 294.498 305.314 C 294.643 304.777 295.424 303.429 295.54 303.076 C 295.657 302.722 296.041 302.111 296.18 301.84 C 296.318 301.569 296.48 301.315 296.692 301.027 C 296.903 300.739 297.166 300.418 297.501 300.014 C 297.77 299.696 297.996 299.417 298.188 299.156 C 298.379 298.896 298.538 298.654 298.673 298.413 C 298.807 298.172 298.921 297.931 299.023 297.672 C 299.124 297.413 299.215 297.135 299.304 296.819 C 299.479 296.213 299.621 295.72 299.735 295.319 C 299.849 294.919 299.933 294.61 299.995 294.375 C 300.056 294.142 300.504 293.256 300.952 292.408 C 301.401 291.561 301.851 290.75 301.916 290.666 C 301.983 290.583 302.055 290.483 302.133 290.373 C 302.212 290.263 302.293 290.142 302.377 290.017 C 302.68 289.57 303.046 289.101 303.459 288.626 C 303.87 288.151 304.328 287.673 304.81 287.21 C 305.293 286.748 305.8 286.3 306.313 285.886 C 306.826 285.473 307.344 285.095 307.848 284.77 C 308.085 284.616 308.362 284.451 308.641 284.294 C 308.921 284.135 309.203 283.985 309.457 283.86 C 309.711 283.734 309.933 283.633 310.089 283.573 C 310.246 283.513 310.337 283.496 310.329 283.537 C 310.326 283.55 310.303 283.593 310.261 283.661 C 310.22 283.73 310.163 283.821 310.093 283.931 C 310.022 284.04 309.939 284.168 309.847 284.305 C 309.755 284.443 309.655 284.591 309.551 284.742 C 309.323 285.07 309.125 285.367 308.94 285.663 C 308.755 285.959 308.584 286.254 308.412 286.576 C 308.241 286.899 308.066 287.251 307.876 287.658 C 307.685 288.069 307.478 288.534 307.238 289.087 C 307.019 289.598 306.81 290.058 306.602 290.485 C 306.394 290.91 306.187 291.304 305.97 291.682 C 305.753 292.06 305.526 292.423 305.28 292.789 C 305.034 293.153 304.769 293.52 304.474 293.907 L 303.199 295.244 L 301.925 296.581 C 301.874 296.604 301.396 297.026 300.902 297.47 C 300.408 297.916 299.896 298.384 299.777 298.501 C 299.623 298.647 299.479 298.798 299.342 298.961 C 299.203 299.123 299.07 299.298 298.937 299.488 C 298.804 299.68 298.671 299.89 298.532 300.123 C 298.392 300.356 298.247 300.615 298.091 300.903 C 297.898 301.27 297.732 301.615 297.587 301.95 C 297.442 302.286 297.321 302.613 297.216 302.949 C 297.11 303.285 297.039 303.632 296.971 304.002 C 296.904 304.374 296.744 305.025 296.641 305.536 C 296.443 306.05 295.657 308.685 295.18 309.684 C 294.704 310.682 294.196 311.635 293.616 312.627 C 293.037 313.619 292.385 314.649 291.623 315.801 C 291.41 316.13 291.183 316.472 290.957 316.807 C 290.731 317.143 290.504 317.472 290.291 317.777 C 290.078 318.083 289.878 318.365 289.704 318.604 C 289.53 318.844 289.383 319.043 289.275 319.181 C 289.167 319.316 289.065 319.447 288.973 319.567 C 288.881 319.686 288.8 319.796 288.732 319.888 C 288.664 319.981 288.611 320.058 288.576 320.111 C 288.54 320.165 288.522 320.198 288.526 320.203 C 288.555 320.222 288.709 320.186 288.925 320.12 C 289.141 320.052 289.419 319.954 289.699 319.846 C 289.977 319.739 290.258 319.624 290.477 319.524 C 290.695 319.424 290.852 319.34 290.886 319.295 C 290.907 319.271 290.946 319.214 290.997 319.13 C 291.048 319.047 291.112 318.938 291.185 318.811 C 291.258 318.683 291.339 318.539 291.423 318.384 C 291.508 318.229 291.597 318.064 291.684 317.898 C 292.523 316.329 293.321 314.979 294.116 313.806 C 294.912 312.634 295.706 311.64 296.537 310.783 C 297.369 309.925 298.236 309.207 299.181 308.584 C 300.126 307.961 301.147 307.435 302.283 306.964 C 302.825 306.739 303.341 306.539 303.851 306.358 C 304.361 306.177 304.863 306.016 305.379 305.868 C 305.894 305.72 306.421 305.585 306.979 305.46 C 307.537 305.334 308.128 305.217 308.768 305.103 C 308.935 305.072 309.07 305.05 309.18 305.036 C 309.289 305.021 309.372 305.014 309.433 305.014 C 309.494 305.015 309.534 305.024 309.558 305.041 C 309.581 305.058 309.589 305.084 309.586 305.117 C 309.561 305.242 309.383 305.708 309.119 306.352 C 308.855 306.997 308.508 307.82 308.145 308.661 C 307.783 309.501 307.405 310.357 307.084 311.069 C 306.762 311.779 306.496 312.344 306.354 312.601 C 305.831 313.55 305.259 314.426 304.648 315.221 C 304.035 316.015 303.383 316.73 302.694 317.358 C 302.005 317.986 301.282 318.529 300.531 318.981 C 299.779 319.432 298.998 319.792 298.197 320.055 C 297.916 320.145 297.687 320.216 297.448 320.274 C 297.208 320.332 296.961 320.377 296.641 320.418 C 296.322 320.458 295.934 320.492 295.414 320.529 C 294.895 320.566 294.244 320.604 293.402 320.65 C 292.939 320.677 292.496 320.721 292.066 320.785 C 291.636 320.848 291.22 320.931 290.809 321.034 C 290.398 321.139 289.994 321.264 289.587 321.412 C 289.179 321.561 288.771 321.732 288.353 321.927 C 288.18 322.007 288.005 322.09 287.835 322.172 C 287.666 322.253 287.503 322.335 287.356 322.41 C 287.209 322.486 287.075 322.555 286.967 322.613 C 286.858 322.672 286.772 322.72 286.721 322.754 C 286.672 322.789 286.578 322.874 286.451 322.998 C 286.325 323.121 286.164 323.284 285.981 323.473 C 285.799 323.662 285.595 323.877 285.38 324.109 C 285.164 324.34 284.938 324.587 284.711 324.837 C 284.102 325.517 283.484 326.177 282.845 326.823 C 282.207 327.47 281.549 328.102 280.864 328.729 C 280.179 329.356 279.467 329.978 278.719 330.603 C 277.972 331.227 277.187 331.854 276.358 332.491 C 276.146 332.655 275.943 332.812 275.757 332.958 C 275.573 333.104 275.406 333.236 275.267 333.35 C 275.127 333.464 275.015 333.558 274.938 333.627 C 274.861 333.695 274.818 333.738 274.82 333.748 C 274.819 333.756 274.871 333.751 274.967 333.736 C 275.063 333.722 275.202 333.697 275.375 333.665 C 275.547 333.633 275.753 333.593 275.983 333.547 C 276.212 333.502 276.463 333.451 276.728 333.397 C 277.01 333.337 277.293 333.28 277.568 333.229 C 277.843 333.176 278.109 333.13 278.356 333.089 C 278.603 333.048 278.83 333.015 279.027 332.991 C 279.224 332.967 279.389 332.951 279.513 332.947 C 279.726 332.942 279.887 332.936 280.011 332.927 C 280.134 332.917 280.22 332.905 280.284 332.883 C 280.348 332.861 280.389 332.83 280.423 332.786 C 280.457 332.741 280.483 332.685 280.517 332.61 C 280.581 332.463 280.664 332.307 280.765 332.15 C 280.865 331.993 280.982 331.834 281.108 331.68 C 281.235 331.526 281.372 331.375 281.513 331.235 C 281.655 331.096 281.802 330.966 281.949 330.854 C 282.15 330.708 282.401 330.573 282.682 330.453 C 282.963 330.333 283.273 330.23 283.593 330.148 C 283.912 330.065 284.241 330.003 284.558 329.969 C 284.874 329.934 285.179 329.926 285.45 329.949 C 285.933 329.993 286.366 330.086 286.749 330.227 C 287.132 330.367 287.464 330.555 287.744 330.788 C 288.022 331.021 288.248 331.299 288.418 331.62 C 288.588 331.94 288.702 332.304 288.758 332.709 C 288.791 332.945 288.801 333.161 288.786 333.368 C 288.771 333.574 288.731 333.771 288.662 333.965 C 288.592 334.158 288.496 334.349 288.368 334.545 C 288.24 334.741 288.082 334.944 287.889 335.16 C 287.693 335.378 287.502 335.566 287.306 335.73 C 287.111 335.892 286.911 336.029 286.696 336.148 C 286.481 336.266 286.25 336.365 285.994 336.45 C 285.737 336.536 285.456 336.608 285.138 336.673 C 284.646 336.773 284.2 336.823 283.792 336.818 C 283.383 336.814 283.013 336.755 282.67 336.638 C 282.326 336.521 282.011 336.347 281.715 336.112 C 281.418 335.876 281.141 335.58 280.872 335.22 C 280.728 335.029 280.613 334.88 280.517 334.763 C 280.421 334.647 280.342 334.564 280.269 334.505 C 280.197 334.446 280.13 334.41 280.057 334.388 C 279.984 334.367 279.905 334.36 279.808 334.357 C 279.608 334.353 279.151 334.415 278.555 334.518 C 277.957 334.622 277.222 334.767 276.464 334.929 C 275.706 335.089 274.928 335.267 274.246 335.436 C 273.563 335.605 272.978 335.764 272.608 335.889 C 272.149 336.044 271.672 336.224 271.182 336.425 C 270.692 336.626 270.188 336.848 269.677 337.089 C 269.166 337.33 268.646 337.591 268.123 337.868 C 267.6 338.145 267.075 338.439 266.552 338.747 C 266.509 338.773 266.351 338.876 266.134 339.017 C 265.918 339.159 265.643 339.338 265.369 339.519 C 265.096 339.699 264.484 340.036 263.812 340.391 C 263.141 340.746 262.41 341.117 261.898 341.364 C 261.386 341.612 260.876 341.859 260.498 342.046 C 260.12 342.232 259.873 342.359 259.885 342.365 C 259.893 342.373 259.948 342.361 260.036 342.331 C 260.125 342.302 260.248 342.254 260.397 342.194 C 260.547 342.133 260.722 342.058 260.913 341.973 C 261.104 341.888 261.312 341.792 261.526 341.689 C 262.381 341.294 263.19 340.959 263.961 340.684 C 264.732 340.409 265.464 340.193 266.165 340.035 C 266.867 339.876 267.537 339.775 268.184 339.729 C 268.831 339.682 269.456 339.692 270.064 339.755 C 270.516 339.801 270.927 339.865 271.363 339.971 C 271.799 340.076 272.262 340.225 272.817 340.442 C 273.374 340.659 274.024 340.943 274.838 341.322 C 275.651 341.701 276.625 342.175 277.83 342.768 C 278.144 342.924 278.462 343.077 278.788 343.228 C 279.114 343.379 279.447 343.528 279.789 343.676 C 280.13 343.824 280.479 343.97 280.839 344.115 C 281.198 344.26 281.566 344.403 281.945 344.545 L 282.022 344.576 L 282.1 344.607 L 282.177 344.638 L 282.254 344.669 L 282.186 344.723 L 282.117 344.777 L 282.049 344.831 L 281.982 344.885 C 281.814 345.019 281.575 345.188 281.287 345.378 C 281 345.568 280.664 345.779 280.304 345.994 C 279.945 346.21 279.562 346.431 279.179 346.643 C 278.797 346.855 278.416 347.057 278.058 347.237 C 276.92 347.811 275.838 348.286 274.805 348.658 C 273.773 349.03 272.789 349.302 271.85 349.474 C 270.911 349.647 270.013 349.72 269.152 349.695 C 268.29 349.67 267.464 349.547 266.668 349.328 C 266.178 349.192 265.744 349.052 265.338 348.89 C 264.932 348.729 264.552 348.546 264.17 348.326 C 263.788 348.105 263.403 347.846 262.986 347.533 C 262.568 347.22 262.12 346.851 261.608 346.41 C 261.136 345.998 260.759 345.677 260.425 345.423 C 260.092 345.169 259.802 344.982 259.503 344.837 C 259.206 344.691 258.901 344.588 258.537 344.501 C 258.173 344.415 257.75 344.345 257.219 344.268 C 256.915 344.223 256.17 344.174 255.954 344.233 C 255.739 344.292 254.176 344.967 253.464 345.284 C 253.297 345.357 251.398 346.039 250.948 346.432 Z" style="stroke-width: 1; transform-origin: 278.589px 316.607px;" transform="matrix(0.9781481, 0.207911, -0.207911, 0.9781481, 0.00002192, 0.00001373)"/>
  <g style="transform-origin: 229.084px 340.945px;" transform="matrix(0.95207298, 0.051218, -0.051218, 0.95207298, -1.93270074, 1.23166635)">
    <path d="M 219.731 349.563 C 219.481 349.453 219.241 349.193 219.101 348.923 C 218.381 347.443 220.461 346.173 221.531 347.453 C 222.101 348.133 221.801 349.263 220.961 349.613 C 220.431 349.823 220.231 349.823 219.731 349.563" style="stroke-width: 1; transform-box: fill-box; transform-origin: 50% 50%;" transform="matrix(0.358369, 0.93358, -0.93358, 0.358369, 0.000003, 0.000002)"/>
    <path d="M 219.146 338.407 C 218.456 338.127 218.066 337.077 218.406 336.417 C 218.636 336.017 219.286 335.597 219.716 335.597 C 220.196 335.597 220.786 335.977 221.026 336.427 C 221.376 337.117 221.046 338.057 220.316 338.357 C 219.876 338.547 219.496 338.557 219.146 338.407" style="stroke-width: 1; transform-box: fill-box; transform-origin: 50% 50%;" transform="matrix(0.358369, 0.93358, -0.93358, 0.358369, 0.000003, -0.000007)"/>
    <path d="M 221.692 343.818 C 220.992 343.338 220.802 342.588 221.232 341.888 C 222.092 340.498 224.272 341.408 223.882 342.998 C 223.832 343.168 223.622 343.478 223.402 343.698 C 222.922 344.178 222.302 344.228 221.692 343.818" style="stroke-width: 1; transform-box: fill-box; transform-origin: 50% 50%;" transform="matrix(0.358369, 0.93358, -0.93358, 0.358369, 0.000018, 0.000004)"/>
    <path d="M 233.358 348.19 C 232.218 347.79 231.498 347.02 230.958 345.65 L 230.648 344.83 L 230.108 345.35 C 227.898 347.49 225.198 347.17 224.258 344.67 C 223.688 343.16 224.038 341.41 225.218 339.83 C 226.178 338.53 228.858 336.1 231.648 333.98 C 232.738 333.15 232.798 333.13 232.958 333.34 C 233.498 334.03 235.168 336.82 235.888 338.24 C 237.698 341.84 238.088 344.32 237.188 346.28 C 236.478 347.85 234.768 348.69 233.358 348.19" style="stroke-width: 1; transform-box: fill-box; transform-origin: 50% 50%;" transform="matrix(0.358369, 0.93358, -0.93358, 0.358369, -0.000003, -0.000001)"/>
  </g>
</svg>